<?xml version="1.0" encoding="UTF-8" standalone="no"?>
<svg
   xmlns:dc="http://purl.org/dc/elements/1.1/"
   xmlns:cc="http://creativecommons.org/ns#"
   xmlns:rdf="http://www.w3.org/1999/02/22-rdf-syntax-ns#"
   xmlns:svg="http://www.w3.org/2000/svg"
   xmlns="http://www.w3.org/2000/svg"
   xmlns:sodipodi="http://sodipodi.sourceforge.net/DTD/sodipodi-0.dtd"
   xmlns:inkscape="http://www.inkscape.org/namespaces/inkscape"
   width="1030.0002"
   height="351.73886"
   viewBox="0 0 272.52089 93.064235"
   version="1.1"
   id="svg8"
   inkscape:export-filename="/home/rutar/Desktop/df.png"
   inkscape:export-xdpi="96"
   inkscape:export-ydpi="96"
   inkscape:version="1.0.1 (1.0.1+r74)"
   sodipodi:docname="рисунок-1.svg">
  <defs
     id="defs2" />
  <sodipodi:namedview
     id="base"
     pagecolor="#3f3f3f"
     bordercolor="#666666"
     borderopacity="1.0"
     inkscape:pageopacity="0"
     inkscape:pageshadow="2"
     inkscape:zoom="0.35"
     inkscape:cx="1197.3082"
     inkscape:cy="282.96441"
     inkscape:document-units="mm"
     inkscape:current-layer="layer1"
     inkscape:document-rotation="0"
     showgrid="false"
     fit-margin-left="3"
     fit-margin-top="3"
     fit-margin-bottom="3"
     fit-margin-right="3"
     inkscape:snap-object-midpoints="true"
     inkscape:window-width="1600"
     inkscape:window-height="838"
     inkscape:window-x="0"
     inkscape:window-y="0"
     inkscape:window-maximized="0"
     units="px" />
  <metadata
     id="metadata5">
    <rdf:RDF>
      <cc:Work
         rdf:about="">
        <dc:format>image/svg+xml</dc:format>
        <dc:type
           rdf:resource="http://purl.org/dc/dcmitype/StillImage" />
        <dc:title></dc:title>
      </cc:Work>
    </rdf:RDF>
  </metadata>
  <g
     inkscape:label="Шар 1"
     inkscape:groupmode="layer"
     id="layer1"
     transform="translate(185.62159,21.187985)">
    <path
       style="fill:#f26561;stroke-width:0.114513"
       d="m -105.99434,70.993759 c -0.25656,-0.05213 -5.12578,-1.174133 -9.56184,-2.203321 -1.60604,-0.372601 -4.72366,-1.095398 -6.92804,-1.606207 -2.20438,-0.510809 -5.88884,-1.366451 -8.18768,-1.901394 -5.39883,-1.256344 -12.33723,-2.867007 -15.45927,-3.588677 -2.7803,-0.642688 -8.80273,-2.040735 -15.00121,-3.482399 -2.29884,-0.53468 -5.00421,-1.158037 -6.01192,-1.385241 -1.00772,-0.227214 -2.42484,-0.546884 -3.14913,-0.710387 -5.61198,-1.266868 -9.96115,-4.067572 -12.58857,-8.106582 -1.68383,-2.58846 -2.18513,-4.939394 -1.84573,-8.655749 0.46898,-5.135307 2.32597,-11.372161 6.68902,-22.465711 0.88591,-2.252564 1.00431,-2.497662 2.0038,-4.148578 l 0.76018,-1.255575 0.0708,0.969293 c 0.067,0.916939 0.12411,2.231457 0.28458,6.551803 0.038,1.02346 0.0853,2.041195 0.10497,2.261632 0.0197,0.220438 0.0402,0.846328 0.0454,1.390866 l 0.01,0.990072 0.88747,0.0673 c 0.48811,0.03702 1.29975,0.09434 1.8036,0.127376 0.50386,0.03303 2.02401,0.136075 3.37813,0.228974 1.35412,0.0929 2.87428,0.196253 3.37814,0.229675 0.50386,0.03343 1.63753,0.110868 2.51927,0.1721 0.88176,0.06123 2.01544,0.138912 2.5193,0.172621 2.22966,0.149171 7.52159,0.5144 8.31544,0.573899 l 0.87208,0.06537 2.9641,-1.422317 c 1.63025,-0.782277 7.55035,-3.623783 13.15575,-6.314459 5.60543,-2.690676 11.60137,-5.568526 13.32434,-6.39522 l 3.13267,-1.5030841 0.71318,-1.0337395 c 0.39225,-0.5685581 2.38045,-3.507223 4.41821,-6.5303676 2.03777,-3.02314449 4.78047,-7.0876754 6.09488,-9.0322914 1.31443,-1.9446159 2.36745,-3.5936034 2.34006,-3.6644164 -0.0274,-0.07081 -1.27404,-1.983865 -2.77032,-4.251223 -1.49629,-2.26736 -2.894,-4.385459 -3.10603,-4.706888 -0.21204,-0.321431 -0.38552,-0.607708 -0.38552,-0.636173 0,-0.02846 0.42512,-0.0072 0.94472,0.04718 0.61125,0.06402 1.61172,0.316287 2.83421,0.714664 2.31841,0.755505 4.45517,1.397038 8.187683,2.458232 8.586921,2.441357 11.796414,3.816342 15.016305,6.433153 2.336701,1.8990441 3.629583,3.9274975 4.259612,6.683078 1.025969,4.4873043 0.372034,9.1474171 -2.038477,14.526747 -0.371328,0.828654 -3.069817,7.638468 -5.996645,15.132916 -2.926829,7.494448 -5.563467,14.244644 -5.859196,15.000429 -0.797386,2.037852 -1.948037,4.98499 -5.834567,14.943948 -5.633215,14.434726 -5.922585,15.169658 -6.000275,15.239088 -0.0407,0.03633 -0.17704,0.04519 -0.30301,0.01958 z m -57.97909,-48.068747 c -3.61099,-0.458223 -6.05481,-1.4844 -7.87664,-3.307444 -1.48981,-1.490818 -2.13618,-3.087785 -2.13664,-5.278941 -3.8e-4,-1.807079 0.38104,-3.426158 1.26768,-5.3814077 4.49717,-9.91730315 19.14515,-20.9400943 34.94732,-26.2983203 11.17696,-3.789906 21.08148,-4.069739 26.09427,-0.737245 4.55131,3.025705 4.66243,8.7000829 0.29853,15.24487 -1.41558,2.12303776 -2.54394,3.46196842 -4.97627,5.904916 -3.42451,3.4394568 -6.57593,5.9417939 -11.11036,8.821992 -9.09632,5.777845 -19.51369,9.753811 -28.62826,10.926456 -2.00428,0.257865 -6.23156,0.314261 -7.87963,0.105124 z"
       id="path481" />
    <text
       xml:space="preserve"
       style="font-style:normal;font-variant:normal;font-weight:bold;font-stretch:normal;font-size:58.8213px;line-height:1.25;font-family:'Noto Sans CJK HK';-inkscape-font-specification:'Noto Sans CJK HK Bold';fill:#eb1420;fill-opacity:1;stroke-width:2.45089"
       x="-64.300621"
       y="44.043686"
       id="text62"
       transform="scale(0.99808787,1.0019158)"><tspan
         sodipodi:role="line"
         id="tspan60"
         x="-64.300621"
         y="44.043686"
         style="fill:#eb1420;fill-opacity:1;stroke-width:2.45089">Ruby</tspan></text>
    <path
       style="fill:#eb1420;stroke-width:0.114513"
       d="m -105.82257,71.004895 c 0,-0.147134 -14.88006,-23.970666 -15.17544,-24.296437 -0.11261,-0.124202 -0.41327,-0.0138 -1.64983,0.605844 -6.03436,3.023823 -14.04721,5.910133 -20.99655,7.563175 -0.99414,0.236464 -1.79286,0.443313 -1.77497,0.459659 0.0179,0.01636 2.99555,1.200623 6.61704,2.631732 9.12796,3.607134 16.91289,6.688634 24.44853,9.677457 3.527,1.398899 6.83871,2.69991 7.35936,2.891161 0.52065,0.191236 0.92943,0.364902 0.90841,0.385937 -0.021,0.021 -1.47763,-0.297781 -3.2369,-0.708441 -1.75927,-0.410659 -5.54332,-1.288052 -8.40901,-1.94975 -2.86569,-0.661719 -7.06545,-1.636121 -9.33281,-2.165352 -3.68377,-0.859843 -8.89042,-2.068558 -16.03183,-3.721791 -1.32262,-0.306181 -4.18259,-0.970696 -6.35548,-1.476692 -4.83544,-1.126019 -12.95647,-3.005135 -16.66163,-3.855316 -1.51159,-0.346846 -3.44217,-0.790533 -4.29017,-0.985974 -5.97709,-1.377549 -10.40382,-4.407994 -12.93477,-8.854868 -0.32219,-0.56609 -0.69252,-1.313286 -0.82294,-1.66044 -0.9842,-2.619527 -0.82134,-6.791198 0.4699,-12.036776 l 0.327,-1.328443 3.12886,-3.091091 c 3.88614,-3.839235 5.51271,-5.419585 5.54334,-5.385867 0.013,0.01434 0.0573,0.464087 0.0982,0.999436 0.0409,0.535348 0.0953,1.102188 0.12082,1.259644 0.0255,0.157455 0.0775,0.75006 0.11569,1.316899 0.0382,0.566841 0.0881,1.159446 0.11099,1.3169 0.0229,0.157455 0.0735,0.750061 0.11245,1.316901 0.039,0.56684 0.0919,1.159444 0.11758,1.316901 0.0257,0.157455 0.0772,0.698527 0.11439,1.202386 0.0836,1.131473 0.11975,1.54601 0.3944,4.523268 0.061,0.661311 0.14128,1.588867 0.17842,2.061236 0.0371,0.472364 0.0895,1.090734 0.11632,1.374156 0.0269,0.283418 0.078,0.850257 0.11371,1.259641 0.0358,0.409386 0.0876,0.924692 0.11542,1.145134 0.0277,0.220435 0.0818,0.864572 0.12011,1.431412 0.0383,0.566836 0.0872,1.159441 0.1087,1.316901 0.0215,0.157454 0.0729,0.724294 0.11435,1.259643 0.0413,0.535348 0.0931,1.10219 0.11505,1.259642 0.0219,0.157453 0.0732,0.775824 0.11397,1.374155 0.0408,0.598335 0.0921,1.216705 0.11396,1.374159 0.0219,0.157452 0.072,0.672766 0.1113,1.14513 0.0394,0.472366 0.0929,1.090736 0.11914,1.374155 0.0262,0.283424 0.0806,0.901793 0.12096,1.374158 0.0404,0.472365 0.089,0.875549 0.10829,0.895967 0.0193,0.02043 0.38759,-0.483667 0.81853,-1.120192 0.43097,-0.636525 1.45347,-2.133966 2.27224,-3.327654 0.81876,-1.193682 2.14963,-3.13731 2.95749,-4.319172 0.80786,-1.181863 2.75722,-4.029718 4.3319,-6.328567 1.57471,-2.298849 3.24847,-4.746566 3.71949,-5.439372 0.47105,-0.692802 1.5456,-2.264496 2.38793,-3.492649 0.84231,-1.228152 2.14049,-3.12782 2.88484,-4.221484 l 1.35335,-1.988481 0.97337,-0.488313 c 0.53535,-0.268571 3.42109,-1.661092 6.41273,-3.094487 2.99165,-1.433397 8.19627,-3.929748 11.56582,-5.547447 3.36955,-1.617697 7.83094,-3.757048 9.91421,-4.754112 l 3.78776,-1.8128399 2.2432,-3.3319225 c 6.68489,-9.9293012 11.22325,-16.6310646 11.34415,-16.7518626 0.0751,-0.07504 1.01258,-0.322352 2.08328,-0.549591 1.07069,-0.227238 2.874273,-0.614562 4.007952,-0.860719 1.133678,-0.246157 3.04032,-0.659219 4.236984,-0.917917 1.196661,-0.258698 2.767646,-0.600057 3.49108,-0.758574 1.562845,-0.342448 1.592927,-0.336462 3.423175,0.681343 2.987291,1.66124 5.370029,3.8084244 6.569465,5.9200224 0.393388,0.6925531 0.846699,1.9933541 1.112936,3.1936226 0.998313,4.50067737 0.256627,9.3876111 -2.238935,14.752213 -0.286706,0.616322 -1.003449,2.357329 -1.592759,3.868902 -0.58931,1.511572 -1.585699,4.062351 -2.214198,5.668396 -0.628499,1.606045 -2.19862,5.625454 -3.48916,8.932017 -5.027844,12.882125 -7.150974,18.318615 -8.810073,22.559072 -1.948087,4.979094 -5.672967,14.529997 -6.676737,17.119703 -0.62709,1.617908 -0.85433,2.100538 -0.85433,1.814514 z m -57.37104,-48.017792 c -5.01289,-0.50012 -8.42619,-2.241512 -9.90329,-5.052454 -2.81322,-5.353574 1.32872,-13.579039 10.91119,-21.668455 9.28076,-7.834713 22.80183,-14.206851 34.0331,-16.038929 2.75193,-0.448903 4.21397,-0.57145 6.75626,-0.566307 7.0471,0.01426 11.35598,2.12946 12.84223,6.304162 0.34111,0.958167 0.42055,3.102859 0.1626,4.3905479 -1.48182,7.3972775 -9.9882,16.3685964 -22.16587,23.3774091 -2.05209,1.181071 -6.63863,3.465476 -8.66442,4.315471 -5.77551,2.423292 -11.49222,4.034046 -16.69777,4.704788 -2.05418,0.264683 -5.76787,0.384032 -7.27403,0.233767 z"
       id="path479" />
    <path
       style="fill:#960d15;stroke-width:0.114513"
       d="m -108.71381,66.23463 c -1.62166,-2.594155 -5.08105,-8.117659 -7.68753,-12.274486 -2.60648,-4.156822 -4.72498,-7.583626 -4.70778,-7.615118 0.0172,-0.0315 0.0666,-0.649861 0.10966,-1.374157 0.0431,-0.724294 0.0974,-1.445729 0.12054,-1.603183 0.0232,-0.157455 0.0747,-0.878885 0.11453,-1.603181 0.0398,-0.724295 0.0893,-1.497258 0.10993,-1.717695 0.0206,-0.220441 0.0733,-0.941871 0.11696,-1.603185 0.0437,-0.661314 0.0959,-1.382742 0.11591,-1.603183 0.0201,-0.220436 0.071,-0.941871 0.11312,-1.603181 0.0421,-0.661312 0.0935,-1.382747 0.11419,-1.603183 0.0207,-0.220437 0.0725,-0.941871 0.11516,-1.603184 0.0427,-0.661313 0.0944,-1.382746 0.11483,-1.603184 0.0205,-0.220438 0.0717,-0.941868 0.11387,-1.603182 0.0421,-0.661313 0.0929,-1.382745 0.11287,-1.603184 0.0199,-0.220436 0.0716,-0.941869 0.11476,-1.603182 0.0432,-0.661312 0.0951,-1.382745 0.11532,-1.603183 0.0202,-0.220437 0.0714,-0.941869 0.11363,-1.603182 0.0423,-0.661313 0.0934,-1.382745 0.11371,-1.603184 0.0203,-0.220436 0.0722,-0.941868 0.11539,-1.603182 0.0432,-0.661313 0.0953,-1.382745 0.1158,-1.603182 0.0205,-0.220439 0.07,-0.967636 0.11004,-1.66044 0.04,-0.692802 0.0933,-1.440001 0.11837,-1.660439 0.0251,-0.220438 0.0815,-0.941869 0.12542,-1.603184 0.0439,-0.661311 0.0931,-1.331213 0.10936,-1.488668 0.0162,-0.157456 0.0346,-0.55682 0.0409,-0.887476 0.008,-0.4359062 0.0558,-0.6011936 0.17297,-0.6011936 0.0889,0 2.4722,0.5696926 5.29624,1.2659846 2.82403,0.696293 5.88181,1.446757 6.79505,1.667698 3.16321,0.765281 13.274198,3.243648 17.463238,4.280521 1.448591,0.358555 2.649435,0.639928 2.668543,0.625272 0.01911,-0.01465 -0.809043,-1.282106 -1.840336,-2.816559 -1.031292,-1.534451 -4.118277,-6.1394196 -6.859961,-10.2332608 -2.741687,-4.09384116 -6.100414,-9.1089169 -7.463844,-11.1446133 -1.36345,-2.035695 -2.47897,-3.7490959 -2.47897,-3.8075589 0,-0.05846 0.0417,-0.106294 0.0926,-0.106294 0.0898,0 5.751877,-1.210785 11.24416,-2.404462 1.480081,-0.321677 2.961177,-0.640732 3.291327,-0.709009 0.594867,-0.123024 0.611055,-0.118784 1.798355,0.471258 3.163946,1.572356 6.005608,4.0255568 7.305271,6.3066304 0.393653,0.6909099 0.847053,1.9909205 1.11383,3.1936226 1.028502,4.63677694 0.234256,9.5596344 -2.450045,15.185722 -2.219825,4.65258 -6.046081,9.725439 -11.228448,14.886698 -2.112223,2.103618 -3.317671,3.230166 -5.085126,4.752291 -0.402234,0.346402 -0.796691,0.693062 -0.876572,0.770357 -0.12385,0.119839 -0.244868,0.673579 -0.457292,2.092471 -0.0236,0.157454 -0.0935,0.621231 -0.15549,1.030617 -0.0619,0.409382 -0.13927,0.924693 -0.17186,1.145129 -0.0326,0.220437 -0.13586,0.890341 -0.22947,1.488672 -0.0936,0.598328 -0.19983,1.293998 -0.23605,1.545925 -0.0362,0.251927 -0.11323,0.741473 -0.17113,1.087872 -0.0579,0.346406 -0.13151,0.835946 -0.16362,1.087874 -0.0321,0.251932 -0.13547,0.947598 -0.22967,1.545929 -0.0942,0.598331 -0.20124,1.293997 -0.23786,1.545923 -0.0366,0.251933 -0.139,0.921833 -0.22757,1.488673 -0.0886,0.566837 -0.19163,1.236743 -0.22902,1.488667 -0.0374,0.251928 -0.14088,0.921835 -0.22993,1.488672 -0.0891,0.566841 -0.19251,1.262508 -0.22989,1.545926 -0.0374,0.283419 -0.0901,0.644138 -0.11714,0.801591 -0.0271,0.157452 -0.0779,0.492405 -0.11298,0.744335 -0.0351,0.25193 -0.11114,0.74147 -0.16904,1.087876 -0.0579,0.3464 -0.13152,0.83594 -0.16362,1.087874 -0.0321,0.251925 -0.13546,0.947591 -0.22968,1.545922 -0.0942,0.598336 -0.20124,1.293997 -0.23785,1.545931 -0.0366,0.251926 -0.139,0.921826 -0.22757,1.488666 -0.0886,0.566841 -0.19164,1.23674 -0.22903,1.488671 -0.0374,0.251931 -0.14087,0.921829 -0.22992,1.488673 -0.0891,0.566843 -0.19316,1.262506 -0.23132,1.545912 -0.0382,0.283432 -0.11599,0.798731 -0.17296,1.145138 -0.057,0.3464 -0.13342,0.835946 -0.16982,1.087882 -0.0836,0.578208 -0.4033,2.654484 -0.4673,3.034594 -0.0265,0.157461 -0.10757,0.72429 -0.18012,1.259639 -0.0726,0.535347 -0.16334,1.00884 -0.20174,1.052213 -0.0384,0.04336 -1.39662,-2.04364 -3.0183,-4.637783 z m -0.42964,4.034888 c -1.29113,-0.30816 -4.92406,-1.156065 -8.07317,-1.88423 -3.14911,-0.728172 -7.58076,-1.756779 -9.84812,-2.285813 -3.69134,-0.861241 -9.01323,-2.096589 -16.03183,-3.721386 -1.32262,-0.306181 -4.18259,-0.970696 -6.35548,-1.476692 -4.83544,-1.126019 -12.95647,-3.005135 -16.66163,-3.855316 -1.51159,-0.346846 -3.44217,-0.790533 -4.29017,-0.985974 -5.97709,-1.377549 -10.40382,-4.407994 -12.93477,-8.854868 -0.32219,-0.56609 -0.69252,-1.313286 -0.82294,-1.66044 -0.98373,-2.618268 -0.81988,-6.82006 0.46896,-12.025233 l 0.32607,-1.316906 2.67174,-2.650671 c 2.93069,-2.907576 5.98119,-5.874907 6.00716,-5.843375 0.009,0.01105 0.0528,0.509627 0.097,1.107957 0.0443,0.598331 0.0959,1.218673 0.11486,1.378539 0.019,0.159867 0.0686,0.726706 0.11038,1.259644 0.0418,0.532939 0.0961,1.149337 0.1206,1.369774 0.0245,0.220438 0.0764,0.787277 0.1152,1.259643 0.0388,0.472366 0.0907,1.039205 0.1152,1.259643 0.0245,0.220439 0.0757,0.838808 0.11382,1.374158 0.0381,0.535349 0.0893,1.15372 0.11382,1.374157 0.0245,0.220435 0.0764,0.787276 0.1152,1.259644 0.0388,0.472364 0.0907,1.039205 0.11521,1.259646 0.0245,0.220435 0.0757,0.838806 0.11382,1.374157 0.0381,0.535344 0.0902,1.153715 0.11588,1.374155 0.0531,0.455584 0.25326,2.664519 0.34254,3.778931 0.0328,0.409383 0.0828,0.976223 0.11114,1.259642 0.0283,0.283422 0.0827,0.901791 0.12066,1.374156 0.0381,0.472368 0.0876,1.039208 0.11018,1.259643 0.0226,0.22044 0.0727,0.787276 0.11135,1.259647 0.0387,0.472365 0.0918,1.090736 0.11798,1.374154 0.0262,0.283419 0.0781,0.85026 0.11542,1.259643 0.0373,0.409389 0.0892,0.976226 0.11539,1.259642 0.0262,0.283419 0.0773,0.901789 0.11362,1.374159 0.0862,1.121591 0.18421,1.994629 0.22916,2.041087 0.0197,0.02042 0.55959,-0.726787 1.19965,-1.660437 4.22984,-6.170115 7.33251,-10.703928 8.64566,-12.633548 0.83575,-1.228149 2.18312,-3.197974 2.99412,-4.377388 0.81102,-1.179417 2.93614,-4.283589 4.7225,-6.898171 2.01875,-2.954684 3.29721,-4.725218 3.37814,-4.678303 0.0716,0.04152 1.88224,1.31979 4.02364,2.840613 2.14138,1.520823 5.51667,3.916355 7.5006,5.32341 1.98395,1.407049 3.94211,2.799716 4.3515,3.094811 0.40938,0.295097 2.36756,1.68601 4.3515,3.090919 1.98394,1.404906 3.94211,2.795536 4.35149,3.090288 0.40939,0.29475 1.71218,1.222195 2.89511,2.060989 1.18292,0.838796 2.17703,1.567592 2.20915,1.619549 0.0683,0.110482 -2.22588,1.277203 -4.62522,2.352199 -5.35984,2.401413 -12.12755,4.702082 -17.80302,6.052111 -0.99414,0.236464 -1.79192,0.445511 -1.77289,0.464551 0.019,0.01903 1.39923,0.573893 3.06713,1.233029 7.18826,2.840737 33.05558,13.084049 34.46634,13.648474 0.85027,0.340182 1.44286,0.615753 1.3169,0.612378 -0.12596,-0.0034 -1.2854,-0.258237 -2.57654,-0.566391 z"
       id="path477" />
    <text
       xml:space="preserve"
       style="font-style:normal;font-variant:normal;font-weight:bold;font-stretch:normal;font-size:58.8213px;line-height:1.25;font-family:'Noto Sans CJK HK';-inkscape-font-specification:'Noto Sans CJK HK Bold';fill:#960d15;fill-opacity:1;stroke-width:2.45088"
       x="-61.723633"
       y="45.514732"
       id="text62-3"
       transform="scale(0.99808786,1.0019158)"><tspan
         sodipodi:role="line"
         id="tspan60-6"
         x="-61.723633"
         y="45.514732"
         style="fill:#960d15;fill-opacity:1;stroke-width:2.45088">Ruby</tspan></text>
  </g>
</svg>
